<svg version="1.1" xmlns="http://www.w3.org/2000/svg" xmlns:xlink="http://www.w3.org/1999/xlink" x="0px" y="0px"
	 viewBox="0 0 3710 3710" style="enable-background:new 0 0 3710 3710;" xml:space="preserve">
<g id="Background">
	<g>
		<g>
			<rect style="fill:#FFFFFF;" width="3710" height="3710"/>
		</g>
	</g>
</g>
<g id="Illustration">
	<g>
		<linearGradient id="SVGID_1_" gradientUnits="userSpaceOnUse" x1="3607.5605" y1="4081.4114" x2="1116.0861" y2="987.1564">
			<stop  offset="0" style="stop-color:#DAE3FE"/>
			<stop  offset="1" style="stop-color:#E9EFFD"/>
		</linearGradient>
		<path style="fill:url(#SVGID_1_);" d="M2922.14,2861.149c-57.228,60.247-111.377,99.1-154.159,129.797
			c-502.893,360.831-1097.948,255.651-1224.414,229.964c-186.751-37.93-547.736-111.248-808.721-418.162
			c-394.849-464.335-333.366-1195.882-27.094-1678.786c56.022-88.331,351.946-578.591,953.411-657.214
			c364-47.581,788.307,48.385,1095.578,305.817C3401.731,1312.939,3355.815,2404.59,2922.14,2861.149z"/>
		<g>
			<g>
				<path style="fill:#91B3FA;" d="M1286.232,1838.71c0,0,6.442-270.855-118.311-343.348
					c-124.753-72.493-361.953-117.816-370.843-506.738c-5.206-227.693-10.839-327.243-14.616-370.652
					c-1.473-16.933,13.574-30.601,30.277-27.455c118.152,22.258,501.975,113.872,582.446,375.849
					C1490.585,1276.943,1286.232,1838.71,1286.232,1838.71z"/>
				<path style="fill:#BDD0FB;" d="M904.113,698.728c129.695,115.67,279.663,320.381,359.598,525.093
					c10.261,33.738,40.274,105.485,53.307,232.96c11.641,106.317,5.854,218.661-8.261,293.028
					c-0.893,4.702-5.427,7.789-10.129,6.897c-8.084-1.534-7.009-10.229-6.936-9.954c16.12-127.057,9.429-285.201-27.509-427.893
					c-47.192-175.208-152.449-345.08-261.319-489.154l-11.203-14.187c-84.348-108.323-102.105-109.121-94.22-116.672
					C899.303,697.062,902.218,697.046,904.113,698.728z"/>
			</g>
			<g>
				<path style="fill:#BDD0FB;" d="M1486.714,2359.466c16.879,8.276-159.79-213.885-215.132-562.807
					c-26.078-164.421-26.419-370.426-120.08-449.814c-77.951-66.071-343.209-24.358-430.002-8.506
					c-10.845,1.98-14.496,15.68-6.054,22.771c41.622,34.955,130.659,117.406,153.858,200.5
					c30.578,109.525,134.706,179.189,227.927,198.043c93.221,18.853,145.078,37.15,190.492,186.231
					C1333.138,2094.964,1438.755,2335.949,1486.714,2359.466z"/>
				
					<linearGradient id="SVGID_00000155138246540519237080000008921233587165281921_" gradientUnits="userSpaceOnUse" x1="-2693.4888" y1="1436.9741" x2="-4078.3616" y2="2513.4736" gradientTransform="matrix(-1 0 0 1 -1806.2764 0)">
					<stop  offset="0" style="stop-color:#DAE3FE"/>
					<stop  offset="1" style="stop-color:#E9EFFD"/>
				</linearGradient>
				<path style="fill:url(#SVGID_00000155138246540519237080000008921233587165281921_);" d="M843.569,1384.615
					c110.734,4.638,229.598,55.151,289.917,149.903l5.693,9.042c13.149,21.2,87.672,171.911,129.062,296.843
					c0.515,1.557-0.329,3.239-1.886,3.754c-2.646,0.876-3.97-2.035-3.718-1.778c-28.837-70.577-70.254-160.057-103.241-226.971
					c-35.375-73.017-60.13-122.466-140.819-169.831c-89.809-51.01-175.608-56.261-175.35-56.208
					c-1.309-0.134-2.263-1.304-2.129-2.613C841.227,1385.495,842.322,1384.566,843.569,1384.615z"/>
			</g>
		</g>
		<g>
			
				<linearGradient id="SVGID_00000049220192877862803330000011160551774575968941_" gradientUnits="userSpaceOnUse" x1="1843.9529" y1="3216.9771" x2="1884.9696" y2="1296.0103">
				<stop  offset="0" style="stop-color:#09005D"/>
				<stop  offset="1" style="stop-color:#1A0F91"/>
			</linearGradient>
			<path style="fill:url(#SVGID_00000049220192877862803330000011160551774575968941_);" d="M629.67,3032.833
				c0,24.492,20.058,44.531,44.574,44.531h2410.379c24.516,0,44.574-20.039,44.574-44.531l20.057-1385.179
				c0-24.491-28.856-72.307-81.739-68.714l-2355.688-60.953c-30.76-0.796-60.501,11.043-82.284,32.755
				c-21.782,21.712-33.701,51.397-32.974,82.128L629.67,3032.833z"/>
			
				<linearGradient id="SVGID_00000127039491089357497060000009634038794351100325_" gradientUnits="userSpaceOnUse" x1="640.0742" y1="2301.5256" x2="3087.5918" y2="2301.5256">
				<stop  offset="0" style="stop-color:#4F52FF"/>
				<stop  offset="1" style="stop-color:#4042E2"/>
			</linearGradient>
			<path style="fill:url(#SVGID_00000127039491089357497060000009634038794351100325_);" d="M673.676,2990.111
				c0,23.193,18.976,42.17,42.17,42.17h2310.65c23.194,0,42.17-18.977,42.17-42.17l18.927-1257.478
				c-2.229-75.672-68.572-102.869-108.788-101.263L721.09,1570.799c-21.61-0.58-42.504,7.746-57.81,23.013
				c-15.306,15.267-23.724,36.16-23.182,57.771L673.676,2990.111z"/>
			
				<linearGradient id="SVGID_00000167375875882822577340000018137744421449180809_" gradientUnits="userSpaceOnUse" x1="1964.6559" y1="1144.7767" x2="1847.8256" y2="3261.4814">
				<stop  offset="0" style="stop-color:#09005D"/>
				<stop  offset="1" style="stop-color:#1A0F91"/>
			</linearGradient>
			<path style="fill:url(#SVGID_00000167375875882822577340000018137744421449180809_);" d="M439.783,3192.351h2830.434
				c3.109,0,5.654-2.544,5.654-5.654v-110.399c0-3.109-2.544-5.654-5.654-5.654H439.783c-3.11,0-5.654,2.544-5.654,5.654v110.399
				C434.129,3189.807,436.673,3192.351,439.783,3192.351z"/>
			<path style="fill:#91B3FA;" d="M3085.708,1859.44l1.885-125.995c-2.229-75.672-68.572-103.275-108.789-101.669L721.09,1571.002
				c-21.61-0.58-42.504,7.645-57.81,22.911c-15.305,15.267-23.722,36.922-23.181,58.533l5.174,206.994H3085.708z"/>
			<path style="fill:#91B3FA;" d="M2110.81,2500.052H753.633c-6.167,0-11.167-5-11.167-11.167v-556.851
				c0-6.167,5-11.167,11.167-11.167H2110.81c6.167,0,11.167,5,11.167,11.167v556.851
				C2121.977,2495.053,2116.978,2500.052,2110.81,2500.052z"/>
			<path style="fill:#91B3FA;" d="M3010.835,2500.052h-808.898c-4.418,0-8-3.582-8-8v-563.184c0-4.418,3.582-8,8-8h808.898
				c4.418,0,8,3.582,8,8v563.184C3018.835,2496.471,3015.253,2500.052,3010.835,2500.052z"/>
			<path style="fill:#91B3FA;" d="M3009.001,2977.44H752.299c-5.431,0-9.833-4.402-9.833-9.833v-373.477
				c0-5.431,4.402-9.833,9.833-9.833h2256.702c5.431,0,9.833,4.403,9.833,9.833v373.477
				C3018.835,2973.038,3014.432,2977.44,3009.001,2977.44z"/>
			<path style="fill:#BDD0FB;" d="M2266.711,2929.573H804.587c-9.204,0-16.735-7.531-16.735-16.735v-38.31
				c0-9.204,7.531-16.735,16.735-16.735h1462.124c9.204,0,16.735,7.531,16.735,16.735v38.31
				C2283.446,2922.043,2275.916,2929.573,2266.711,2929.573z"/>
			<path style="fill:#BDD0FB;" d="M2947.37,2462.282h-676.293c-22.559,0-41.017-18.458-41.017-41.017v-124.037
				c0-22.559,18.458-41.017,41.017-41.017h676.293c22.559,0,41.017,18.458,41.017,41.017v124.037
				C2988.387,2443.824,2969.93,2462.282,2947.37,2462.282z"/>
			<path style="fill:#BDD0FB;" d="M2933.698,2223.362h-662.621c-22.559,0-41.017-18.458-41.017-41.017v-173.718
				c0-22.559,18.458-41.017,41.017-41.017h662.621c22.559,0,41.017,18.458,41.017,41.017v173.718
				C2974.715,2204.904,2956.257,2223.362,2933.698,2223.362z"/>
			<path style="fill:#BDD0FB;" d="M2242.429,2823.613H819.078c-22.559,0-41.017-18.458-41.017-41.017v-123.051
				c0-22.56,18.458-41.017,41.017-41.017h1423.351c22.559,0,41.017,18.458,41.017,41.017v123.051
				C2283.446,2805.155,2264.989,2823.613,2242.429,2823.613z"/>
			<path style="fill:#BDD0FB;" d="M2947.37,2929.573h-567.402c-22.559,0-41.017-18.458-41.017-41.017v-229.011
				c0-22.56,18.458-41.017,41.017-41.017h567.402c22.559,0,41.017,18.458,41.017,41.017v229.011
				C2988.387,2911.116,2969.93,2929.573,2947.37,2929.573z"/>
			<path style="fill:#BDD0FB;" d="M2017.652,2445.191H843.084c-22.559,0-41.017-18.458-41.017-41.017v-384.917
				c0-22.559,18.458-41.017,41.017-41.017h1174.567c22.559,0,41.017,18.458,41.017,41.017v384.917
				C2058.669,2426.734,2040.211,2445.191,2017.652,2445.191z"/>
		</g>
		<g>
			
				<linearGradient id="SVGID_00000009576653591399466840000017098304959988863644_" gradientUnits="userSpaceOnUse" x1="1440.359" y1="1908.9496" x2="798.6367" y2="3082.8296">
				<stop  offset="0" style="stop-color:#4F52FF"/>
				<stop  offset="1" style="stop-color:#4042E2"/>
			</linearGradient>
			<path style="fill:url(#SVGID_00000009576653591399466840000017098304959988863644_);" d="M770.513,3020.161
				c0,0-11.093,17.487-13.884,66.444c-0.26,4.561,3.353,8.448,7.922,8.448h86.76c3.491,0,5.982-3.423,4.865-6.73
				c-5.084-15.047-20.456-51.733-54.756-72.697L770.513,3020.161z"/>
			
				<linearGradient id="SVGID_00000003068592445869446380000004725113892187155132_" gradientUnits="userSpaceOnUse" x1="766.7425" y1="3008.9485" x2="807.2305" y2="3008.9485">
				<stop  offset="0" style="stop-color:#FEBBBA"/>
				<stop  offset="1" style="stop-color:#FF928E"/>
			</linearGradient>
			<path style="fill:url(#SVGID_00000003068592445869446380000004725113892187155132_);" d="M766.742,2986.988l4.907,41.146
				c0.423,3.55,3.206,6.392,6.757,6.801c4.745,0.547,11.643,0.932,18.346-0.174c6.093-1.005,10.478-6.432,10.478-12.607v-39.727
				L766.742,2986.988z"/>
			
				<linearGradient id="SVGID_00000039123445951585212710000013893153200755763854_" gradientUnits="userSpaceOnUse" x1="1624.7222" y1="2009.7352" x2="983.0009" y2="3183.6135">
				<stop  offset="0" style="stop-color:#4F52FF"/>
				<stop  offset="1" style="stop-color:#4042E2"/>
			</linearGradient>
			<path style="fill:url(#SVGID_00000039123445951585212710000013893153200755763854_);" d="M985.173,3015.625
				c0,0-16.606,25.812-16.251,61.241c0.084,8.345,7.07,14.993,15.416,14.993h134.748c6.309,0,8.871-8.108,3.707-11.734
				c-25.498-17.905-75.614-51.354-111.862-64.5H985.173z"/>
			
				<linearGradient id="SVGID_00000050628722746268961030000007460949345272304830_" gradientUnits="userSpaceOnUse" x1="971.2964" y1="2990.9702" x2="1011.561" y2="2990.9702">
				<stop  offset="0" style="stop-color:#FEBBBA"/>
				<stop  offset="1" style="stop-color:#FF928E"/>
			</linearGradient>
			<path style="fill:url(#SVGID_00000050628722746268961030000007460949345272304830_);" d="M971.296,2971.188l10.466,50.817
				c1.171,5.684,6.731,9.506,12.395,8.242c3.443-0.769,7.506-2.241,11.846-4.955c4.125-2.579,6.216-7.486,5.373-12.277
				l-10.827-61.565L971.296,2971.188z"/>
			
				<linearGradient id="SVGID_00000146463680560858553120000016762235819638950566_" gradientUnits="userSpaceOnUse" x1="1240.1104" y1="1992.153" x2="973.5001" y2="2484.3569">
				<stop  offset="0" style="stop-color:#09005D"/>
				<stop  offset="1" style="stop-color:#1A0F91"/>
			</linearGradient>
			<path style="fill:url(#SVGID_00000146463680560858553120000016762235819638950566_);" d="M785.968,2264.649
				c0,0-36.394,32.085-43.242,70.688c-6.849,38.603,19.405,666.026,19.405,666.026s36.392,6.055,55.152-5.313
				c0,0,22.25-407.193,39.163-501.285c0,0,88.696,421.798,113.272,498.012c0,0,35.06,4.265,46.366-2.406
				c0,0-23.234-546.769-52.428-643.976L785.968,2264.649z"/>
			
				<linearGradient id="SVGID_00000110446180497839581710000007137503849957254529_" gradientUnits="userSpaceOnUse" x1="1468.114" y1="1697.8024" x2="914.3846" y2="2340.4028">
				<stop  offset="0" style="stop-color:#09005D"/>
				<stop  offset="1" style="stop-color:#1A0F91"/>
			</linearGradient>
			<path style="fill:url(#SVGID_00000110446180497839581710000007137503849957254529_);" d="M855.384,2481.531
				c-1.755,0-3.357-1.178-3.819-2.955l-15.068-57.806l-32.098-20.59c-1.836-1.178-2.371-3.623-1.192-5.458
				c1.179-1.84,3.616-2.375,5.459-1.193l33.398,21.425c0.836,0.535,1.441,1.367,1.689,2.329l15.456,59.3
				c0.552,2.112-0.713,4.27-2.826,4.819C856.048,2481.489,855.716,2481.531,855.384,2481.531z"/>
			
				<linearGradient id="SVGID_00000096745000801832195570000001823179362744891030_" gradientUnits="userSpaceOnUse" x1="1510.015" y1="527.7831" x2="1139.5909" y2="1858.1769">
				<stop  offset="0" style="stop-color:#E1473D"/>
				<stop  offset="1" style="stop-color:#E9605A"/>
			</linearGradient>
			<path style="fill:url(#SVGID_00000096745000801832195570000001823179362744891030_);" d="M1145.11,1902.112
				c-153.204-12.719-193.246,18.985-193.246,18.985l73.624,116.232c0,0,150.538-2.974,258.405-86.112
				c-20.188-21.741-34.208-45.768-43.2-64.476C1212.878,1898.301,1180.847,1905.078,1145.11,1902.112z"/>
			
				<linearGradient id="SVGID_00000065774411895649259440000001456338098401477804_" gradientUnits="userSpaceOnUse" x1="2115.6843" y1="1295.4813" x2="1473.9661" y2="1718.0768">
				<stop  offset="0" style="stop-color:#FEBBBA"/>
				<stop  offset="1" style="stop-color:#FF928E"/>
			</linearGradient>
			<path style="fill:url(#SVGID_00000065774411895649259440000001456338098401477804_);" d="M1385.026,1677.229
				c-0.206-4.909-6.86-6.245-8.945-1.796l-19.549,41.716c-3.777,8.06-4.988,17.086-3.469,25.856l6.857,24.28
				c2.051,11.841-1.042,23.973-8.548,33.357c-17.962,22.456-56.218,63.469-110.679,86.099c8.992,18.708,23.012,42.735,43.2,64.476
				c39.578-30.505,73.42-71.788,91.962-127.697c8.884-2.728,14.82-11.093,14.467-20.379L1385.026,1677.229z"/>
			
				<linearGradient id="SVGID_00000072251389071333049430000017483307948347793848_" gradientUnits="userSpaceOnUse" x1="1464.7622" y1="1729.8369" x2="829.0287" y2="2314.301">
				<stop  offset="0" style="stop-color:#FF928E"/>
				<stop  offset="1" style="stop-color:#FE7062"/>
			</linearGradient>
			<path style="fill:url(#SVGID_00000072251389071333049430000017483307948347793848_);" d="M1195.54,1969.5
				c-53.934-58.116-156.666-84.373-216.144-95.158c-26.058-4.726-51.744,9.775-60.977,34.595
				c-26.766,71.952-99.564,259.147-113.673,291.32c-11.576,26.395-23.664,52.173-31.344,68.29
				c-4.589,9.628-0.579,21.149,9.029,25.78c50.042,24.121,140.087,51.411,176.592,62.057c8.03,2.343,16.025-3.687,16.025-12.051
				c0-7.093,1.928-14.055,5.578-20.137l138.255-230.39c86.172,95.547,161.636,104.284,219.608,83.371
				c-9.748-30.125-16.126-60.306-19.185-90.545C1233.661,2071.96,1195.54,1969.5,1195.54,1969.5z"/>
			
				<linearGradient id="SVGID_00000008856646963717791530000015816185968187828909_" gradientUnits="userSpaceOnUse" x1="1472.9055" y1="1929.5327" x2="1242.1964" y2="2344.8093">
				<stop  offset="0" style="stop-color:#FEBBBA"/>
				<stop  offset="1" style="stop-color:#FF928E"/>
			</linearGradient>
			<path style="fill:url(#SVGID_00000008856646963717791530000015816185968187828909_);" d="M1460.861,2070.596l-15.456-20.608
				c-50.037,34.365-91.861,42.51-126.1,36.643c3.059,30.239,9.438,60.42,19.185,90.545
				C1414.861,2149.625,1460.861,2070.596,1460.861,2070.596z"/>
			
				<linearGradient id="SVGID_00000081609174171351818990000002824806879510204582_" gradientUnits="userSpaceOnUse" x1="1560.1577" y1="1978.0063" x2="1329.4489" y2="2393.2825">
				<stop  offset="0" style="stop-color:#FEBBBA"/>
				<stop  offset="1" style="stop-color:#FF928E"/>
			</linearGradient>
			<path style="fill:url(#SVGID_00000081609174171351818990000002824806879510204582_);" d="M1449.963,2070.969l87.074,3.395
				l80.17-44.777c-11.508-7.213-76.584,7.531-76.584,7.531s-68.029-10.288-86.441-10.313c-15.293-0.02-13.108,21.971-11.928,29.423
				c0.241,1.52,0.439,2.435,0.439,2.435L1449.963,2070.969z"/>
			
				<linearGradient id="SVGID_00000099626828863530813490000003854601956507548095_" gradientUnits="userSpaceOnUse" x1="1215.7786" y1="1601.4891" x2="902.6249" y2="2176.8784">
				<stop  offset="0" style="stop-color:#FEBBBA"/>
				<stop  offset="1" style="stop-color:#FF928E"/>
			</linearGradient>
			<path style="fill:url(#SVGID_00000099626828863530813490000003854601956507548095_);" d="M1061.207,1767.609l-45.942,112.109
				c0,0,52.788,36.538,95.257,33.06l22.928-100.807L1061.207,1767.609z"/>
			<g>
				
					<linearGradient id="SVGID_00000016779029537820167770000012393588561911462590_" gradientUnits="userSpaceOnUse" x1="757.2179" y1="4372.9253" x2="618.8212" y2="4556.0132" gradientTransform="matrix(0.817 -0.5767 0.5767 0.817 -2023.4279 -1428.4956)">
					<stop  offset="0" style="stop-color:#FEBBBA"/>
					<stop  offset="1" style="stop-color:#FF928E"/>
				</linearGradient>
				<path style="fill:url(#SVGID_00000016779029537820167770000012393588561911462590_);" d="M1138.813,1691.181
					c1.052,1.491,33.237,117.76,33.237,117.76l-66.778,16.966l-46.876-105.667
					C1058.395,1720.239,1121.198,1666.224,1138.813,1691.181z"/>
				
					<linearGradient id="SVGID_00000175285047221653816630000005747226602760468405_" gradientUnits="userSpaceOnUse" x1="651.5228" y1="4417.0908" x2="816.8397" y2="4417.0908" gradientTransform="matrix(0.817 -0.5767 0.5767 0.817 -2023.4279 -1428.4956)">
					<stop  offset="0" style="stop-color:#09005D"/>
					<stop  offset="1" style="stop-color:#1A0F91"/>
				</linearGradient>
				<path style="fill:url(#SVGID_00000175285047221653816630000005747226602760468405_);" d="M1083.542,1736.293l20.32,57.557
					c0.261,0.739,0.609,1.421,1.06,2.061c2.758,3.918,13.233,16.702,25.66,5.186c11.275-10.449,21.72-19.817,31.367-21.518
					c4.331-0.763,8.526,1.88,9.699,6.119c2.921,10.565,9.064,34.493,11.229,56.096c0.439,4.384-2.587,8.346-6.916,9.168
					c-13.043,2.477-40.697,6.932-63.783,5.303c-3.128-0.221-5.881-2.098-7.186-4.949c-6.362-13.902-25.856-56.084-33.106-66.999
					c-6.805-10.244-23.487-9.957-30.483-9.337c-2.293,0.203-4.549-0.536-6.28-2.053c-6.12-5.365-17.769-19.063-1.383-35.46
					c3.429-3.432,3.337-8.968-0.198-12.291c-7.036-6.616-14.563-18.351-2.838-32.904c11.916-14.793,27.647-12.439,37.284-8.922
					c3.898,1.422,8.148-0.225,10.266-3.792c1.206-2.031,3.31-3.567,6.957-3.253c4.916,0.422,9.048-3.679,8.96-8.612
					c-0.17-9.477,3.223-21.45,19.662-26.567c29.171-9.079,47.363,19.103,49.165,40.132c1.802,21.029-30.385,29.075-49.312,27.656
					c-14.39-1.078-25.075,13.185-29.37,20.084C1082.957,1731.186,1082.685,1733.866,1083.542,1736.293z"/>
				
					<linearGradient id="SVGID_00000122712218174829361030000017184606529280786820_" gradientUnits="userSpaceOnUse" x1="554.5211" y1="4517.916" x2="665.5266" y2="4404.0273" gradientTransform="matrix(0.817 -0.5767 0.5767 0.817 -2023.4279 -1428.4956)">
					<stop  offset="0" style="stop-color:#FEBBBA"/>
					<stop  offset="1" style="stop-color:#FF928E"/>
				</linearGradient>
				<path style="fill:url(#SVGID_00000122712218174829361030000017184606529280786820_);" d="M1079.495,1805.202
					c0,0-4.712-36.509-19.9-38.297c-15.187-1.789-29.969,10.693-14.87,31.184
					C1063.507,1823.578,1079.495,1805.202,1079.495,1805.202z"/>
			</g>
		</g>
		<g>
			<g>
				
					<linearGradient id="SVGID_00000111181278103437073570000006102499395023901824_" gradientUnits="userSpaceOnUse" x1="2338.8474" y1="2466.9412" x2="2277.3228" y2="1277.4476">
					<stop  offset="0" style="stop-color:#FF928E"/>
					<stop  offset="1" style="stop-color:#FE7062"/>
				</linearGradient>
				<path style="fill:url(#SVGID_00000111181278103437073570000006102499395023901824_);" d="M3026.188,2046.628H1479.953
					c-62.426,0-113.032-50.606-113.032-113.032V926.76c0-59.983,46.853-109.519,106.742-112.857l1605.901-89.509
					c67.236-3.748,122.815,51.757,119.155,118.999l-59.665,1096.345C3135.791,1999.688,3086.227,2046.628,3026.188,2046.628z"/>
				<g>
					
						<linearGradient id="SVGID_00000160892167040567320870000011079350237577160625_" gradientUnits="userSpaceOnUse" x1="2225.2009" y1="1575.8119" x2="2300.3992" y2="208.5747">
						<stop  offset="0" style="stop-color:#FF928E"/>
						<stop  offset="1" style="stop-color:#FE7062"/>
					</linearGradient>
					<path style="fill:url(#SVGID_00000160892167040567320870000011079350237577160625_);" d="M2289.174,1439.093l845.223-703.922
						c-16.489-7.865-35.154-11.875-54.834-10.777l-1605.901,89.508c-27.615,1.539-52.443,12.917-71.199,30.598l632.574,588.3
						C2103.71,1496.666,2216.683,1499.464,2289.174,1439.093z"/>
				</g>
			</g>
			<g style="opacity:0.66;">
				<path style="fill:#FFFFFF;" d="M1924.511,1295.219c-2.056,0-4.119-0.738-5.758-2.233l-475.558-434.073
					c-3.485-3.183-3.732-8.587-0.551-12.073c3.178-3.482,8.585-3.734,12.073-0.551l475.558,434.073
					c3.485,3.183,3.732,8.587,0.551,12.073C1929.141,1294.281,1926.831,1295.219,1924.511,1295.219z"/>
			</g>
			<g style="opacity:0.66;">
				<path style="fill:#FFFFFF;" d="M2808.216,2017.511c-12.915,0-26.38-0.027-40.433-0.053l-14.64-0.028
					c-4.72-0.008-8.539-3.84-8.532-8.56c0.007-4.715,3.832-8.53,8.545-8.53c0.003,0,0.01,0,0.013,0l14.647,0.028
					c164.646,0.3,247.36,0.481,284.953-38.423c30.118-31.172,33.683-90.576,29.845-196.339c-0.174-4.717,3.511-8.679,8.228-8.851
					c4.646-0.175,8.675,3.512,8.849,8.23c5.117,140.946-7.647,180.911-34.631,208.837
					C3025.952,2014.295,2951.128,2017.511,2808.216,2017.511z"/>
			</g>
		</g>
		<g>
			
				<linearGradient id="SVGID_00000176024349427665813600000017261251330446437763_" gradientUnits="userSpaceOnUse" x1="2306.5061" y1="1536.8331" x2="2711.5281" y2="342.2726">
				<stop  offset="0" style="stop-color:#E1473D"/>
				<stop  offset="1" style="stop-color:#E9605A"/>
			</linearGradient>
			
				<circle style="fill:url(#SVGID_00000176024349427665813600000017261251330446437763_);" cx="2325.859" cy="1479.754" r="296.874"/>
			
				<linearGradient id="SVGID_00000111909484479669403280000015432372170637727381_" gradientUnits="userSpaceOnUse" x1="2569.135" y1="716.5569" x2="2240.9988" y2="1741.9807">
				<stop  offset="0" style="stop-color:#E1473D"/>
				<stop  offset="1" style="stop-color:#E9605A"/>
			</linearGradient>
			
				<circle style="fill:url(#SVGID_00000111909484479669403280000015432372170637727381_);" cx="2324.912" cy="1479.754" r="273.946"/>
			<g>
				<path style="fill:#FFFFFF;" d="M2205.522,1529.117l-24.08,72.931h-30.963l78.783-231.869h36.124l79.123,231.869h-31.994
					l-24.771-72.931H2205.522z M2281.554,1505.723l-22.705-66.739c-5.16-15.138-8.605-28.899-12.043-42.316h-0.688
					c-3.438,13.761-7.223,27.867-11.696,41.972l-22.705,67.083H2281.554z"/>
				<path style="fill:#FFFFFF;" d="M2378.576,1373.276c18.232-2.752,39.909-4.817,63.645-4.817c43.003,0,73.619,9.977,93.917,28.899
					c20.639,18.92,32.682,45.754,32.682,83.252c0,37.843-11.696,68.804-33.373,90.134c-21.67,21.672-57.447,33.37-102.516,33.37
					c-21.33,0-39.218-1.033-54.355-2.752V1373.276z M2408.504,1578.31c7.571,1.377,18.579,1.721,30.275,1.721
					c63.989,0,98.734-35.778,98.734-98.39c0.344-54.699-30.619-89.444-93.917-89.444c-15.478,0-27.178,1.375-35.092,3.096V1578.31z"
					/>
			</g>
		</g>
	</g>
</g>
</svg>
